<?xml version="1.0" encoding="utf-8"?>
<!-- Generator: Adobe Illustrator 16.0.0, SVG Export Plug-In . SVG Version: 6.00 Build 0)  -->
<!DOCTYPE svg PUBLIC "-//W3C//DTD SVG 1.1//EN" "http://www.w3.org/Graphics/SVG/1.1/DTD/svg11.dtd">
<svg version="1.1" id="Layer_1" xmlns="http://www.w3.org/2000/svg" xmlns:xlink="http://www.w3.org/1999/xlink" x="0px" y="0px"
	 width="240px" height="240px" viewBox="0 -15 240 240" enable-background="new 0 -15 240 240" xml:space="preserve">
<title>shape-42</title>
<desc>Created with Sketch.</desc>
<g id="Page-1">
	<g id="shape-42" transform="translate(0.000000, -1.000000)">
		<g id="Bg_Circle" transform="translate(17.000000, 7.000000)" opacity="0.55">
			<g id="Group" transform="translate(153.000000, 5.000000)" opacity="0.3">
				<path id="Path" fill="none" stroke="#2196F3" stroke-width="4" d="M1.66,0.93C1.18,0.65,0.689,0.37,0.2,0.09"/>
				<path id="Path-2" fill="none" stroke="#2196F3" stroke-width="4" d="M50.641,118.57c2.15-8.564,3.231-17.361,3.219-26.19
					C54.019,55.95,35.364,22.017,4.52,2.63"/>
				<path id="Path-3" fill="none" stroke="#2196F3" stroke-width="4" d="M49.77,121.859c0.15-0.539,0.311-1.1,0.451-1.649"/>
			</g>
			<path id="Path-4" opacity="0.21" fill="none" stroke="#2196F3" stroke-width="4" enable-background="new    " d="M68,0
				C28.37,14.35,0,52.81,0,98"/>
			<path id="Path-5" opacity="0.5" fill="none" stroke="#2196F3" stroke-width="4" enable-background="new    " d="M20,160
				c30.772,41.65,87.59,54.15,133,29.26"/>
		</g>
		<path id="Path-12" opacity="0.5" fill="#4D8AF0" enable-background="new    " d="M150.68,3.04c0.038,0.018,0.074,0.038,0.11,0.06
			l0,0c0.19,0.148,0.261,0.405,0.17,0.63c-0.083,0.224-0.302,0.369-0.54,0.36l0,0c-0.041-0.001-0.081-0.008-0.12-0.02
			c-0.536-0.169-1.115,0.094-1.34,0.61c-0.019,0.038-0.038,0.074-0.06,0.11l0,0c-0.15,0.189-0.406,0.259-0.631,0.17
			c-0.224-0.083-0.369-0.301-0.359-0.54l0,0c0.002-0.041,0.008-0.081,0.02-0.12c0.17-0.537-0.094-1.115-0.609-1.34
			c-0.038-0.018-0.074-0.038-0.11-0.06l0,0c-0.188-0.15-0.261-0.403-0.181-0.63c0.091-0.223,0.311-0.367,0.551-0.36l0,0
			c0.041,0.001,0.081,0.008,0.12,0.02c0.536,0.169,1.115-0.094,1.34-0.61c0.019-0.038,0.038-0.074,0.06-0.11l0,0
			c0.15-0.188,0.403-0.26,0.631-0.18c0.22,0.088,0.363,0.303,0.359,0.54l0,0c-0.001,0.044-0.008,0.088-0.02,0.13
			C149.9,2.237,150.164,2.815,150.68,3.04L150.68,3.04L150.68,3.04z"/>
		<path id="Path-13" opacity="0.5" fill="#FDD835" enable-background="new    " d="M39.79,31.1L39.79,31.1
			c0.191,0.148,0.26,0.405,0.17,0.63c-0.083,0.224-0.301,0.369-0.54,0.36l0,0c-0.041-0.001-0.081-0.008-0.12-0.02
			c-0.537-0.169-1.115,0.094-1.34,0.61c-0.018,0.038-0.038,0.074-0.06,0.11l0,0c-0.149,0.189-0.405,0.259-0.63,0.17
			c-0.224-0.083-0.369-0.301-0.36-0.54l0,0c0.001-0.041,0.008-0.081,0.02-0.12c0.169-0.537-0.094-1.115-0.61-1.34
			c-0.038-0.018-0.074-0.038-0.11-0.06l0,0c-0.188-0.15-0.26-0.403-0.18-0.63c0.09-0.223,0.31-0.367,0.55-0.36l0,0
			c0.041,0.001,0.081,0.008,0.12,0.02c0.537,0.169,1.115-0.094,1.34-0.61c0.018-0.038,0.038-0.074,0.06-0.11l0,0
			c0.15-0.188,0.403-0.26,0.63-0.18c0.22,0.088,0.364,0.303,0.36,0.54l0,0c-0.001,0.044-0.008,0.088-0.02,0.13
			c-0.169,0.537,0.094,1.115,0.61,1.34C39.718,31.058,39.754,31.078,39.79,31.1L39.79,31.1z"/>
		<path id="Path-14" opacity="0.5" fill="#FDD835" enable-background="new    " d="M30.68,113.04c0.038,0.018,0.074,0.038,0.11,0.06
			l0,0c0.191,0.148,0.26,0.406,0.17,0.631c-0.083,0.224-0.301,0.369-0.54,0.359l0,0c-0.041-0.002-0.081-0.008-0.12-0.02
			c-0.537-0.17-1.115,0.094-1.34,0.609c-0.018,0.038-0.038,0.074-0.06,0.11l0,0c-0.149,0.189-0.405,0.259-0.63,0.17
			c-0.224-0.083-0.369-0.302-0.36-0.54l0,0c0.001-0.041,0.008-0.081,0.02-0.12c0.169-0.536-0.094-1.115-0.61-1.34
			c-0.038-0.018-0.074-0.038-0.11-0.06l0,0c-0.188-0.15-0.26-0.403-0.18-0.631c0.09-0.223,0.31-0.366,0.55-0.359l0,0
			c0.041,0.002,0.081,0.008,0.12,0.02c0.537,0.17,1.115-0.094,1.34-0.609c0.018-0.038,0.038-0.074,0.06-0.11l0,0
			c0.15-0.188,0.403-0.261,0.63-0.181c0.22,0.089,0.364,0.304,0.36,0.541l0,0c-0.001,0.044-0.008,0.088-0.02,0.13
			C29.904,112.236,30.166,112.813,30.68,113.04L30.68,113.04L30.68,113.04z"/>
		<circle id="Oval-2" opacity="0.5" fill="#F55F44" enable-background="new    " cx="92" cy="8" r="2"/>
		<circle id="Oval-3" opacity="0.5" fill="#F55F44" enable-background="new    " cx="2" cy="86" r="2"/>
		<circle id="Oval-5" opacity="0.5" fill="#4D8AF0" enable-background="new    " cx="223" cy="92" r="2"/>
		<circle id="Oval-6" opacity="0.5" fill="#47E6B1" enable-background="new    " cx="213" cy="29" r="2"/>
		<circle id="Oval-7" opacity="0.5" fill="#47E6B1" enable-background="new    " cx="231" cy="176" r="2"/>
	</g>
</g>
</svg>
