<?xml version="1.0" encoding="utf-8"?>
<!-- Generator: Adobe Illustrator 16.0.0, SVG Export Plug-In . SVG Version: 6.00 Build 0)  -->
<!DOCTYPE svg PUBLIC "-//W3C//DTD SVG 1.1//EN" "http://www.w3.org/Graphics/SVG/1.1/DTD/svg11.dtd">
<svg version="1.1" id="Capa_1" xmlns="http://www.w3.org/2000/svg" xmlns:xlink="http://www.w3.org/1999/xlink" x="0px" y="0px"
	 width="47.668px" height="85.139px" viewBox="55.33 7.421 47.668 85.139" enable-background="new 55.33 7.421 47.668 85.139"
	 xml:space="preserve">
	 <defs>
		<g id="flecha-der">
			<path d="M60.41,92.56c-2.796,0-5.075-2.276-5.08-5.074c-0.005-1.342,0.54-2.66,1.495-3.61l33.902-33.898L56.82,16.073
				c-1.983-2.054-1.928-5.278,0.087-7.225c0.956-0.921,2.209-1.428,3.533-1.428s2.579,0.507,3.531,1.428l37.536,37.536
				c0.96,0.958,1.49,2.235,1.49,3.594s-0.53,2.635-1.491,3.596L64.008,91.072c-0.959,0.959-2.234,1.487-3.592,1.487H60.41z"/>
			<path d="M60.416,89.56c-1.15,0.003-2.084-0.929-2.086-2.079c-0.002-0.555,0.219-1.088,0.611-1.479l36.029-36.025L58.941,13.952
				c-0.799-0.828-0.776-2.146,0.051-2.946c0.809-0.78,2.088-0.78,2.895,0l37.5,37.5c0.814,0.813,0.814,2.132,0,2.945l-37.5,37.5
				C61.497,89.341,60.969,89.56,60.416,89.56z"/>
		</g>
	</defs>
</svg>
