<?xml version="1.0" encoding="utf-8"?>
<!-- Generator: Adobe Illustrator 16.0.0, SVG Export Plug-In . SVG Version: 6.00 Build 0)  -->
<!DOCTYPE svg PUBLIC "-//W3C//DTD SVG 1.1//EN" "http://www.w3.org/Graphics/SVG/1.1/DTD/svg11.dtd">
<svg class="icon" version="1.1" id="Capa_1" xmlns="http://www.w3.org/2000/svg" xmlns:xlink="http://www.w3.org/1999/xlink" x="0px" y="0px"
	 width="100px" height="100px" viewBox="0 0 100 100" enable-background="new 0 0 100 100" xml:space="preserve">
	<defs>
		<g id="flecha-der">
			<path d="M89.842,50.772c0.322-0.779,0.143-1.676-0.454-2.271l-37.5-37.5c-0.827-0.799-2.146-0.776-2.946,0.051
				c-0.779,0.807-0.779,2.087,0,2.895l33.946,33.946H12.083c-1.151,0-2.083,0.933-2.083,2.083s0.933,2.084,2.083,2.084h70.804
				L48.945,86.002c-0.827,0.799-0.85,2.117-0.051,2.945c0.8,0.828,2.118,0.851,2.946,0.051c0.017-0.016,0.034-0.033,0.051-0.051
				l37.5-37.5C89.584,51.254,89.737,51.024,89.842,50.772z"/>
		</g>
	</defs>
</svg>
